<svg width="220" height="53" viewBox="0 0 220 53" fill="none" xmlns="http://www.w3.org/2000/svg">
<g clip-path="url(#clip0_221175_265205)">
<path d="M-2.0417e-05 11.7533L0.39776 11.7482C3.59253 11.7482 6.12598 12.5476 7.9972 14.1474C9.47915 15.4147 10.6468 17.0933 11.4991 19.1846H23.995C23.3708 16.165 22.2144 13.3404 20.5253 10.7092C18.5176 7.5819 15.7559 5.06272 12.2421 3.15351C8.76435 1.26351 4.68341 0.309244 -0.000244141 0.289135V11.7533H-2.0417e-05Z" fill="#1473B5"/>
<path d="M0 52.429L0.123719 52.4299C4.68813 52.4299 8.68182 51.5105 12.1048 49.6724C15.5282 47.834 18.2547 45.3749 20.2859 42.2949C22.0538 39.6158 23.2585 36.692 23.9029 33.5242H11.3027C10.8419 34.5948 10.253 35.5976 9.53734 36.5291C8.51067 37.8668 7.22157 38.9408 5.66916 39.7529C4.11741 40.5644 2.36006 40.9704 0.397781 40.9704L0 40.9653V52.4293L0 52.429Z" fill="#1473B5"/>
<path d="M52.4989 52.1357C52.3092 52.1397 52.1188 52.1413 51.9276 52.1413C47.3631 52.1413 43.3692 51.2218 39.9469 49.3839C36.5233 47.5457 33.797 45.0865 31.7654 42.0062C30.0521 39.4086 28.8666 36.5814 28.2084 33.5242H40.8767C41.3166 34.488 41.8633 35.3932 42.5137 36.2406C43.5408 37.5779 44.8297 38.6523 46.3823 39.4643C47.9339 40.2756 49.6908 40.6815 51.6535 40.6815C51.9401 40.6815 52.222 40.6733 52.4992 40.6572V52.1357H52.4989Z" fill="#3FB24D"/>
<path d="M52.201 3.8147e-05L52.499 0.00182559V11.4832C52.2223 11.4678 51.9404 11.46 51.6533 11.46C48.4588 11.46 45.9251 12.2594 44.0543 13.8587C42.5041 15.1832 41.2985 16.9593 40.4374 19.1847H27.999C28.6069 16.0566 29.7825 13.1355 31.5258 10.421C33.5335 7.29369 36.2947 4.77452 39.8087 2.86508C43.3236 0.954755 47.454 3.8147e-05 52.2008 3.8147e-05L52.201 3.8147e-05Z" fill="#3FB24D"/>
<path fill-rule="evenodd" clip-rule="evenodd" d="M5.40224 31.5902H47.1647C54.2767 31.5902 54.2771 21.034 47.1647 21.034H5.40224C-1.71016 21.034 -1.70904 31.5902 5.40224 31.5902Z" fill="#262626"/>
<path d="M70.6948 35.0066C69.0502 35.0066 67.5909 34.6243 66.3172 33.8593C65.0433 33.0945 64.052 32.0439 63.3424 30.7072C62.6329 29.3708 62.2783 27.8732 62.2783 26.2147C62.2783 24.5722 62.6412 23.0788 63.3665 21.7342C64.0921 20.3898 65.0999 19.335 66.3895 18.5702C67.6795 17.8054 69.1466 17.4229 70.7912 17.4229C72.4036 17.4229 73.8142 17.733 75.0236 18.3528C76.2329 18.9726 77.1962 19.802 77.9137 20.8407C78.6312 21.879 79.0867 23.0265 79.28 24.2824H74.9268C74.7493 23.7352 74.4793 23.2359 74.1164 22.785C73.7536 22.3341 73.2981 21.9719 72.7502 21.6982C72.202 21.4243 71.5812 21.2876 70.8877 21.2876C69.9849 21.2876 69.2108 21.5052 68.5661 21.9398C67.9211 22.3746 67.4372 22.9622 67.1148 23.7031C66.7922 24.4437 66.6311 25.2812 66.6311 26.2151C66.6311 27.1493 66.7922 27.9865 67.1148 28.7271C67.4372 29.4678 67.9171 30.0556 68.554 30.4904C69.1907 30.9252 69.9686 31.1426 70.8877 31.1426C72.0166 31.1426 72.9112 30.8729 73.5723 30.3336C74.2337 29.794 74.7174 29.033 75.0236 28.051H79.3285C79.1511 29.2908 78.7077 30.4382 77.9985 31.493C77.2891 32.5476 76.3136 33.397 75.072 34.041C73.8305 34.6851 72.3714 35.0071 70.6946 35.0071L70.6948 35.0066ZM87.7625 30.9489H96.3481V34.7168H81.4499V32.5914L90.1082 21.4808H81.4499V17.7129H96.0577V20.418L87.7622 30.9489H87.7625ZM103.814 30.9489H111.844V34.7168H99.6545V17.7129H111.65V21.4808H103.814V24.4761H110.78V27.9541H103.814V30.9491V30.9489ZM121.632 29.1132H119.407V34.7168H115.247V17.7129H123.18C124.325 17.7129 125.345 17.9625 126.239 18.4616C127.134 18.9608 127.832 19.6411 128.331 20.5027C128.831 21.364 129.081 22.3341 129.081 23.4131C129.081 24.5242 128.799 25.5104 128.234 26.3719C127.67 27.2333 126.888 27.8895 125.888 28.3404L130.145 34.7168H125.211L121.632 29.1132H121.632ZM119.407 25.5386H122.503C123.164 25.5386 123.7 25.3453 124.111 24.959C124.522 24.5724 124.728 24.0572 124.728 23.4131C124.728 22.9946 124.631 22.6322 124.438 22.3263C124.244 22.0202 123.978 21.7867 123.639 21.6258C123.301 21.4648 122.922 21.3845 122.503 21.3845H119.407V25.5388V25.5386ZM146.004 17.7129V21.4808H140.683V34.7168H136.523V21.4808H131.106V17.7129H146.004ZM158.283 34.7168L157.219 32.2048H149.673L148.609 34.7168H144.352L151.898 17.7129H155.284L162.733 34.7168H158.283H158.283ZM151.124 28.8234H155.768L153.446 23.3407L151.124 28.8234ZM165.169 34.7168V17.7129H169.329V34.7168H165.169ZM183.954 17.7129H188.113V34.7168H185.598L177.472 25.6353V34.7168H173.312V17.7129H175.731L183.954 26.891V17.7129ZM196.257 30.9489H203.512V34.7168H192.097V17.7129H196.257V30.9489ZM215.259 17.7129H219.999L213.518 28.3404V34.7168H209.358V28.3404L202.877 17.7129H207.617L211.535 24.0655L215.259 17.7129Z" fill="#262626"/>
</g>
<defs>
<clipPath id="clip0_221175_265205">
<rect width="220" height="52.4299" fill="white"/>
</clipPath>
</defs>
</svg>
