<?xml version="1.0" encoding="UTF-8"?>
<!DOCTYPE svg PUBLIC "-//W3C//DTD SVG 1.1//EN" "http://www.w3.org/Graphics/SVG/1.1/DTD/svg11.dtd">
<!-- Creator: CorelDRAW 2019 (64-Bit) -->
<svg xmlns="http://www.w3.org/2000/svg" xml:space="preserve" width="65.0766mm" height="16.409mm" version="1.1" style="shape-rendering:geometricPrecision; text-rendering:geometricPrecision; image-rendering:optimizeQuality; fill-rule:evenodd; clip-rule:evenodd"
viewBox="0 0 9039.14 2279.21"
 xmlns:xlink="http://www.w3.org/1999/xlink"
 xmlns:xodm="http://www.corel.com/coreldraw/odm/2003">
 <defs>
  <style type="text/css">
   <![CDATA[
    .fil0 {fill:#E31E25}
    .fil1 {fill:#A2DAF7}
    .fil2 {fill:#00A0E3}
    .fil4 {fill:black;fill-rule:nonzero}
    .fil3 {fill:black;fill-rule:nonzero}
   ]]>
  </style>
 </defs>
 <g id="Vrstva_x0020_1">
  <metadata id="CorelCorpID_0Corel-Layer"/>
  <polygon class="fil0" points="2198.25,0 573.2,0 573.2,689.31 2198.25,689.31 "/>
  <polygon class="fil1" points="1807.8,1589.88 848.48,1589.88 848.48,2279.21 1807.8,2279.21 "/>
  <polygon class="fil2" points="1237.11,794.94 -0,794.94 -0,1484.24 1237.11,1484.24 "/>
  <g id="_2936285469424">
   <path class="fil3" d="M2630.54 1135.63c49.41,-28.38 74.12,-74.13 74.12,-131.77 0,-95.16 -87.85,-186.67 -234.25,-186.67 -179.36,0 -252.56,98.83 -252.56,215.95l150.07 0c3.67,-51.24 36.6,-76.87 91.51,-76.87 58.56,0 87.85,29.28 87.85,69.55 0,40.27 -32.95,65.88 -87.85,65.88l-51.24 0 0 120.79 54.91 0c58.56,0 95.16,25.63 95.16,65.89 0,40.25 -36.6,65.88 -91.51,65.88 -40.25,0 -87.84,-14.64 -95.16,-65.88l-152.82 0c-0.92,131.76 116.22,204.97 251.65,204.97 150.07,0 252.55,-84.19 252.55,-201.32 0,-58.56 -28.36,-115.3 -92.41,-146.4zm727.63 336.74l-281.84 -345.89 270.86 -298.32 -117.12 0 -314.79 351.39 0 -351.39 -95.16 0 0 644.2 95.16 0 0 -168.37 100.66 -110.72 225.1 279.09 117.13 0zm159.22 -84.19l0 -201.31 274.52 0 0 -84.19 -274.52 0 0 -190.33 322.11 0 0 -84.19 -417.27 0 0 644.2 424.59 0 0 -84.19 -329.43 0zm847.36 -560.02l-183.01 304.72 -194 -304.72 -106.15 0 248.91 398.96 0 245.24 95.16 0 0 -245.24 245.24 -398.96 -106.15 0z"/>
   <path class="fil4" d="M4830.51 1483.35c89.67,0 164.71,-32.95 219.61,-92.42l-39.35 -44.84c-43.92,47.57 -109.8,75.95 -180.26,75.95 -148.23,0 -254.38,-115.3 -254.38,-271.77 0,-156.48 106.15,-271.77 254.38,-271.77 71.38,0 135.43,27.45 181.18,73.2l38.43 -43.92c-56.73,-59.48 -130.86,-90.59 -219.61,-90.59 -188.5,0 -323.93,148.23 -323.93,333.08 0,183.92 135.43,333.08 323.93,333.08zm618.47 0c190.33,0 330.35,-144.58 330.35,-333.08 0,-189.42 -140.01,-333.08 -330.35,-333.08 -189.42,0 -330.33,142.75 -330.33,333.08 0,189.42 143.66,333.08 330.33,333.08zm0 -61.31c-150.98,0 -260.78,-113.47 -260.78,-271.77 0,-158.3 112.55,-271.77 260.78,-271.77 150.08,0 260.8,112.55 260.8,271.77 0,157.39 -110.72,271.77 -260.8,271.77zm1108.95 -593.88l-49.41 0 -277.27 549.95 -278.18 -549.95 -49.41 0 0 644.2 64.96 0 0 -471.26 240.66 471.26 40.27 0 243.41 -476.75 0 476.75 64.96 0 0 -644.2zm388.8 0l-216.86 0 0 644.2 65.88 0 0 -255.3 150.98 0c111.63,0 207.72,-72.3 207.72,-194.9 0,-121.7 -97.01,-194 -207.72,-194zm0 328.51l-150.98 0 0 -268.12 150.98 0c87.84,0 138.18,63.14 138.18,133.61 0,71.37 -50.34,134.51 -138.18,134.51zm751.16 315.69l70.45 0 -286.41 -652.44 -43 0 -286.41 652.44 69.55 0 73.2 -169.29 329.42 0 73.21 169.29zm-376.1 -229.69l138.18 -321.18 139.09 321.18 -277.27 0zm988.16 -414.52l0 512.43 -408.12 -512.43 -37.52 0 0 644.2 64.96 0 0 -507.86 406.28 507.86 39.35 0 0 -644.2 -64.96 0zm655.07 0l-211.38 334 -215.95 -334 -74.12 0 257.13 396.23 0 247.98 65.88 0 0 -247.98 252.56 -396.23 -74.13 0z"/>
  </g>
 </g>
</svg>
