<?xml version="1.0" encoding="UTF-8"?>
<svg
   version="1.1"
   xml:space="preserve"
   width="2384"
   height="924"
   style="shape-rendering:geometricPrecision; text-rendering:geometricPrecision; image-rendering:optimizeQuality; fill-rule:evenodd; clip-rule:evenodd"
   xmlns="http://www.w3.org/2000/svg"
   xmlns:svg="http://www.w3.org/2000/svg">
  <defs>
    <style type="text/css">
      <![CDATA[
      .primary {fill:#FFFFFF}
      .secondary {fill:#FFFFFF}
      .tertiary {fill:#FFFFFF}
      ]]>
    </style>
  </defs>
  <path
     class="tertiary"
     d="M0 0 C38.94 0 77.88 0 118 0 C118 282.48 118 564.96 118 856 C79.39 856 40.78 856 1 856 C0.67 674.83 0.34 493.66 0 307 C-8.25 334.06 -16.5 361.12 -25 389 C-35.75 423.5 -35.75 423.5 -40.234375 437.78125 C-42.76173011 445.88715807 -45.1677713 454.00345873 -47.39361572 462.1965332 C-48.89570762 467.70848109 -50.61813534 473.10799063 -52.5 478.5 C-54.70401358 484.95495122 -56.73812844 491.41060037 -58.5 498 C-60.50655304 505.50450838 -62.90995227 512.83178295 -65.4140625 520.18359375 C-67.29345479 525.74822919 -68.98300971 531.3264563 -70.5 537 C-72.50655304 544.50450838 -74.90995227 551.83178295 -77.4140625 559.18359375 C-79.29345479 564.74822919 -80.98300971 570.3264563 -82.5 576 C-84.26195945 582.58972835 -86.30077631 589.04326717 -88.5 595.5 C-90.90934624 602.57396383 -93.06242489 609.65459388 -94.98706055 616.87390137 C-96.61201744 622.84624712 -98.5373412 628.6864494 -100.53515625 634.54296875 C-105.66662302 649.76777836 -110.32027267 665.13172294 -115 680.5 C-117.97 690.235 -120.94 699.97 -124 710 C-148.09 710 -172.18 710 -197 710 C-202.55384615 693.33846154 -202.55384615 693.33846154 -204.25 687.375 C-209.66271486 668.69825698 -215.55542114 650.17997043 -221.75 631.75 C-224.69695448 622.98218923 -227.63087445 614.22633331 -230.17358398 605.33081055 C-236.28320643 583.95901839 -243.27930031 562.83118295 -250.0687561 541.66873169 C-253.93122156 529.62811223 -257.78396478 517.58675817 -261.5 505.5 C-265.61245468 492.13605299 -269.86626711 478.81791807 -274.125 465.5 C-274.46329834 464.44063232 -274.80159668 463.38126465 -275.15014648 462.28979492 C-278.59268339 451.51355796 -282.06891291 440.75238579 -285.6796875 430.03125 C-287.98045017 423.18949157 -290.13347338 416.32540147 -292.13415527 409.39031982 C-294.71595937 400.45885032 -297.55574979 391.60876157 -300.375 382.75 C-300.80303421 381.40136368 -300.80303421 381.40136368 -301.23971558 380.02548218 C-304.67793227 369.19256486 -308.11756069 358.36060881 -311.81982422 347.61425781 C-314.14946088 340.79231839 -316.00801626 333.9719431 -318 327 C-318.33 501.57 -318.66 676.14 -319 856 C-358.6 856 -398.2 856 -439 856 C-439 573.85 -439 291.7 -439 1 C-398.74 1 -358.48 1 -317 1 C-308.21742958 27.34771127 -308.21742958 27.34771127 -305.921875 34.94921875 C-304.82543837 38.57768063 -303.69569971 42.19540035 -302.5625 45.8125 C-302.19253906 46.99457031 -301.82257813 48.17664063 -301.44140625 49.39453125 C-301.22750244 50.07749268 -301.01359863 50.7604541 -300.79321289 51.46411133 C-300.1742816 53.44282458 -299.55651662 55.42190266 -298.93920898 57.40112305 C-295.37362111 68.83103585 -291.76692127 80.24779845 -288.15405273 91.6628418 C-285.34935352 100.52583161 -282.55703814 109.39159473 -279.83374023 118.2800293 C-278.75631207 121.79500066 -277.66102414 125.30406477 -276.5625 128.8125 C-276.00755859 130.58560547 -276.00755859 130.58560547 -275.44140625 132.39453125 C-275.11571655 133.43444214 -275.11571655 133.43444214 -274.78344727 134.49536133 C-274.19708975 136.3699147 -273.61181935 138.24480817 -273.02709961 140.11987305 C-270.34276625 148.72350562 -267.64171289 157.32179314 -264.93359375 165.91796875 C-264.57008316 167.071866 -264.20657257 168.22576324 -263.83204651 169.41462708 C-262.31842669 174.21881447 -260.80459536 179.02293508 -259.2902832 183.8269043 C-258.1710008 187.37797097 -257.05226335 190.92920899 -255.93359375 194.48046875 C-255.59806992 195.54436325 -255.26254608 196.60825775 -254.91685486 197.70439148 C-252.88227779 204.16464099 -250.87654088 210.63322647 -248.88853455 217.10795593 C-243.78747001 233.71114092 -238.51206578 250.26144083 -233.2902832 266.8269043 C-232.1710008 270.37797097 -231.05226335 273.92920899 -229.93359375 277.48046875 C-229.59806992 278.54436325 -229.26254608 279.60825775 -228.91685486 280.70439148 C-226.88227779 287.16464099 -224.87654088 293.63322647 -222.88853455 300.10795593 C-217.78747001 316.71114092 -212.51206578 333.26144083 -207.2902832 349.8269043 C-206.1710008 353.37797097 -205.05226335 356.92920899 -203.93359375 360.48046875 C-203.59806992 361.54436325 -203.26254608 362.60825775 -202.91685486 363.70439148 C-200.88227779 370.16464099 -198.87654088 376.63322647 -196.88853455 383.10795593 C-191.78747001 399.71114092 -186.51206578 416.26144083 -181.2902832 432.8269043 C-180.1710008 436.37797097 -179.05226335 439.92920899 -177.93359375 443.48046875 C-177.59806992 444.54436325 -177.26254608 445.60825775 -176.91685486 446.70439148 C-174.87523384 453.18700715 -172.86140253 459.67765914 -170.86793518 466.17524719 C-169.75801148 469.78756776 -168.63065849 473.39411617 -167.5 477 C-165.31001738 483.99290586 -163.14742036 490.99389112 -161 498 C-157.61713084 490.52889747 -155.03983035 483.08560609 -152.8059082 475.21118164 C-151.67513015 471.24303347 -150.46359608 467.36177762 -149 463.5 C-147.46355291 459.42949609 -146.2069941 455.33748325 -145.01953125 451.15234375 C-141.14529764 437.76998519 -136.72538285 424.55163397 -132.41640472 411.30457306 C-130.42562241 405.18103011 -128.4410615 399.05546515 -126.45556641 392.9302063 C-125.95627733 391.38997847 -125.45690794 389.84977667 -124.9574585 388.30960083 C-120.56325818 374.75868738 -116.20678359 361.19600215 -111.875 347.625 C-106.2482866 330.00803918 -100.60019386 312.39805003 -94.92828369 294.79559326 C-94.07972944 292.16206786 -93.23186076 289.52832361 -92.38470459 286.89434814 C-87.45332975 271.56664464 -82.45540851 256.26418558 -77.31851196 241.00421143 C-74.90419234 233.81065594 -72.62848149 226.59943437 -70.55307007 219.30133057 C-69.25290566 214.75457552 -67.70251765 210.35827248 -66.03125 205.9375 C-64.70675972 202.16470951 -63.60441157 198.34201357 -62.5 194.5 C-60.88508837 188.88206501 -59.09925347 183.40770273 -57.03125 177.9375 C-55.70675972 174.16470951 -54.60441157 170.34201357 -53.5 166.5 C-51.88508837 160.88206501 -50.09925347 155.40770273 -48.03125 149.9375 C-46.70675972 146.16470951 -45.60441157 142.34201357 -44.5 138.5 C-43.14037226 133.7701435 -41.74164712 129.10693755 -40 124.5 C-38.47264172 120.45208324 -37.22218765 116.38481624 -36.04296875 112.22265625 C-33.55506207 103.62216217 -30.81325082 95.10514413 -28.05078125 86.58984375 C-27.82229366 85.88533207 -27.59380608 85.18082039 -27.35839462 84.45495987 C-25.67964902 79.28142482 -23.99631444 74.10938704 -22.3125 68.9375 C-20.41037622 63.09322105 -18.51046775 57.24822735 -16.61328125 51.40234375 C-16.38073765 50.68627331 -16.14819405 49.97020287 -15.90860367 49.23243332 C-11.86625619 36.77660524 -7.9339891 24.28798748 -4.06794739 11.77635193 C-3.67838364 10.51927933 -3.28881989 9.26220673 -2.88745117 7.96704102 C-2.54574387 6.85925797 -2.20403656 5.75147491 -1.85197449 4.61012268 C-1 2 -1 2 0 0 Z "
     transform="translate(2217,35)"
     />
  <path
     class="tertiary"
     d="M0 0 C42.57 0 85.14 0 129 0 C129 241.89 129 483.78 129 733 C205.89 733 282.78 733 362 733 C362 773.59 362 814.18 362 856 C242.54 856 123.08 856 0 856 C0 573.52 0 291.04 0 0 Z "
     transform="translate(1335,35)" />
  <path
     class="tertiary"
     d="M0 0 C42.57 0 85.14 0 129 0 C129 282.48 129 564.96 129 856 C86.43 856 43.86 856 0 856 C0 573.52 0 291.04 0 0 Z "
     transform="translate(1102,35)"
     />
     
  <g
     id="_1819310986112"
     transform="matrix(0.36837326,0,0,0.36837326,35,35)"
     style="clip-rule:evenodd;fill-rule:evenodd;image-rendering:optimizeQuality;shape-rendering:geometricPrecision;text-rendering:geometricPrecision">
   
   <path
   class="tertiary"
   d="m 0,520.91 17.61,-0.23 c 141.41,0 253.54,35.43 336.37,106.34 65.6,56.17 117.27,130.56 155.01,223.26 h 553.1 C 1034.46,716.44 983.27,591.26 908.52,474.65 819.65,336.05 697.42,224.39 541.88,139.77 387.94,56.01 207.31,13.71 0,12.81 Z"
   />

   <path
   class="tertiary"
   d="m 0,2323.69 5.48,0.04 c 202.04,0 378.8,-40.75 530.32,-122.22 151.53,-81.48 272.21,-190.47 362.12,-326.97 78.25,-118.74 131.57,-248.32 160.09,-388.73 H 500.29 c -20.4,47.45 -46.46,91.89 -78.14,133.17 -45.45,59.29 -102.5,106.89 -171.21,142.89 -68.68,35.96 -146.46,53.96 -233.32,53.96 L 0.01,1815.6 v 508.09 z"
   />

   <path
   class="secondary"
   d="m 2323.74,2310.68 c -8.4,0.18 -16.82,0.25 -25.29,0.25 -202.04,0 -378.81,-40.75 -530.3,-122.21 -151.54,-81.47 -272.21,-190.47 -362.14,-326.98 -75.83,-115.13 -128.31,-240.43 -157.44,-375.93 h 560.73 c 19.47,42.72 43.67,82.83 72.46,120.4 45.47,59.27 102.51,106.89 171.23,142.88 68.67,35.95 146.43,53.95 233.31,53.95 12.69,0 25.17,-0.37 37.43,-1.08 v 508.73 z"
   />

   <path
   class="secondary"
   d="m 2310.55,0 13.19,0.08 v 508.86 c -12.25,-0.68 -24.73,-1.03 -37.43,-1.03 -141.4,0 -253.54,35.43 -336.35,106.32 -68.61,58.71 -121.98,137.42 -160.09,236.05 h -550.56 c 26.91,-138.63 78.95,-268.1 156.11,-388.41 88.87,-138.6 211.08,-250.26 366.63,-334.89 C 1917.63,42.32 2100.46,0 2310.55,0 Z"
   />

   <path
   class="primary"
   d="m 239.12,1400.1 h 1848.51 c 314.79,0 314.81,-467.85 0,-467.85 H 239.12 c -314.81,0 -314.76,467.85 0,467.85 z"
   />

  </g>
</svg>
