<?xml version="1.0" encoding="UTF-8"?><svg id="Layer_2" xmlns="http://www.w3.org/2000/svg" viewBox="0 0 405.97 78.9"><defs><style>.cls-1{fill:#b3b3b4;}.cls-2{fill:#0073cf;}</style></defs><g id="Layer_2-2"><path class="cls-1" d="M93.49,41.42c0-16.92,7.09-24.91,20.2-24.91s20.16,7.99,20.16,24.91-7.05,24.91-20.16,24.91-20.2-7.99-20.2-24.91ZM126.35,41.38c0-12.66-3.52-19.25-12.66-19.25s-12.66,6.6-12.66,19.25,3.52,19.34,12.66,19.34,12.66-6.6,12.66-19.34Z"/><path class="cls-1" d="M147.81,28.96l.21,2.5c.04.61.25.9.7.9.41,0,.61-.2.9-.49,1.43-1.35,3.89-3.48,8.93-3.48,5.98,0,8.89,2.83,10.16,6.39,1.27-2.66,3.93-6.39,10.9-6.39,11.59,0,11.59,10.28,11.59,14.75v22.37h-7.05v-21.59c0-3.4,0-10.04-6.43-10.04-4.67,0-7.7,3.44-7.7,12.09v19.54h-7.05v-21.59c0-3.48,0-10.04-6.47-10.04-4.67.04-7.66,3.44-7.66,12.09v19.54h-7.05V28.96h6.02Z"/><path class="cls-1" d="M205.6,28.96l.2,2.5c.04.7.29.94.74.94.37,0,.57-.16.94-.49,1.72-1.6,4.34-3.52,9.26-3.52,10.49,0,11.68,8.07,11.68,14.83v22.29h-7.05v-21.18c0-4.06-.12-10.45-6.35-10.45-5.78,0-8.4,3.69-8.4,11.68v19.95h-7.05V28.96h6.02Z"/><path class="cls-1" d="M244.84,65.51h-7.05v-31.14h0v-5.41h7.05v31.14h0v5.41ZM236.56,16.8c0-2.38,1.8-4.22,4.26-4.22s4.22,1.84,4.22,4.22-1.8,4.22-4.22,4.22-4.26-1.8-4.26-4.22Z"/><path class="cls-2" d="M271.96,22.94v42.57h-7.33V22.94h-14.17l.66-5.57h34.95l-.62,5.57h-13.48Z"/><path class="cls-2" d="M294.23,28.96l.29,2.83c.04.41.08.94.66.94.29,0,.53-.21.82-.49,1.76-1.8,4.22-3.85,8.73-3.85.98,0,2.13.08,2.79.25l-.61,6.31c-.74-.08-1.68-.16-2.58-.16-7.09,0-9.1,5.08-9.1,12.66v18.07h-7.01V28.96h6.02Z"/><path class="cls-2" d="M311.8,52.03v-23.06h7.05v21.39c0,5.2.61,10.2,6.51,10.2s7.95-3.44,7.95-10.98v-20.61h7.05v36.54h-6.02l-.25-2.5c-.04-.57-.21-.9-.66-.9-.37,0-.57.29-.9.61-1.89,1.88-4.34,3.36-8.85,3.36-9.5,0-11.88-7.13-11.88-14.05Z"/><path class="cls-2" d="M347.03,64.4l.61-5.41c1.97.57,7.25,2.05,11.84,2.05s7.99-1.19,7.99-5.65c0-3.56-2.42-4.71-6.84-5.69-7.37-1.56-13.15-2.99-13.15-10.77s6.39-10.53,14.05-10.53c5.53,0,9.83,1.27,11.6,1.84l-.53,5.12c-1.97-.61-6.15-1.84-10.77-1.84s-7.25,1.39-7.25,4.83c0,4.14,3.52,4.42,8.52,5.53,7.01,1.47,11.55,3.48,11.55,10.9,0,9.38-7.41,11.47-14.99,11.47-5.57,0-11.02-1.31-12.62-1.84Z"/><path class="cls-2" d="M393.03,65.92c-11.47,0-11.47-8.77-11.47-12.21V19.67l7.05-1.11v10.41h9.5l-.61,5.41h-8.89v18.39c0,5,.94,7.78,5.82,7.78,1.97,0,3.61-.45,4.67-.82l.57,5.12c-1.47.57-3.93,1.07-6.64,1.07Z"/><path class="cls-2" d="M46.8,46.8V15.81c2.83.88,5.45,2.26,7.75,4.03l10.44-10.44C58.09,3.55,49.18,0,39.45,0S20.81,3.55,13.92,9.41l10.44,10.44c2.3-1.77,4.91-3.15,7.75-4.03v30.99h14.69Z"/><path class="cls-1" d="M59.62,25.15c2.88,4.04,4.59,8.97,4.59,14.3,0,13.65-11.11,24.76-24.76,24.76s-24.76-11.11-24.76-24.76c0-5.33,1.71-10.26,4.59-14.3l-10.48-10.48C3.31,21.45,0,30.07,0,39.45c0,21.75,17.7,39.45,39.45,39.45s39.45-17.7,39.45-39.45c0-9.38-3.31-18-8.8-24.78l-10.48,10.48Z"/><path class="cls-2" d="M399.97,22.6h-.57v-3.55h-1.3v-.5h3.16v.5h-1.3v3.55Z"/><path class="cls-2" d="M403.89,21.66h.01l1.19-3.11h.88v4.04h-.57v-3.38h-.01l-1.34,3.38h-.36l-1.34-3.38h-.01v3.38h-.55v-4.04h.88l1.21,3.11Z"/></g></svg>